<svg width="160" height="132" viewBox="0 0 160 132" fill="none" xmlns="http://www.w3.org/2000/svg">
<g clip-path="url(#clip0_1_9)">
<path d="M158.739 35.888H145.196C144.115 35.888 143.171 36.566 142.763 37.513L124.483 81.112C124.077 82.192 124.077 83.414 124.483 84.36L132.203 101.014C132.605 101.964 133.149 101.964 133.557 101.014L159.822 37.513C160.23 36.566 159.822 35.888 158.739 35.888Z" fill="white"/>
<path d="M97.5245 47.3905C97.2545 46.7126 96.4427 46.1737 95.4938 46.1737C94.6799 46.1737 93.7361 46.7126 93.4631 47.3905L72.1395 95.1839C71.6026 96.2647 71.1917 96.8056 70.6478 96.8056C70.1118 96.8056 69.435 96.2647 69.027 95.1839L52.4537 69.6799L46.8385 60.9443C47.7194 57.5448 49.1312 58.5107 51.4768 57.3379C76.9908 44.5799 71.5636 3.37346 36.6642 0.145977C34.9044 -8.9407e-08 32.4108 0 28.3035 0H0.738882C0.293953 0 0 0.294953 0 0.733884V100.746C0 101.92 0.738882 102.651 1.9087 102.651H15.6955C16.8693 102.651 17.5992 101.92 17.5992 100.746V65.8405C17.5992 63.3479 19.2139 61.7372 21.7075 61.7372H24.6411C27.1287 61.7372 29.6263 63.055 31.0891 65.1086L32.5078 67.2153L69.9059 130.78C70.1758 131.459 70.9937 132 71.9406 132C72.7514 132 73.5643 131.459 73.8353 130.78L94.006 84.3466C94.409 83.2648 95.0859 82.8618 95.4938 82.8618C96.0337 82.8618 96.5766 83.4007 96.9846 84.3466L117.156 130.78C117.426 131.459 118.237 132 119.184 132C119.997 132 120.808 131.459 121.081 130.78L126.9 116.7C127.308 115.757 127.308 114.401 126.9 113.452L97.5245 47.3905ZM17.5992 40.9125V20.8227C17.5992 18.3291 19.2139 16.5714 21.7075 16.5714H32.4108C54.5543 16.5714 54.6973 45.1648 32.4108 45.1648H21.7075C19.2139 45.1638 17.5992 43.4061 17.5992 40.9125Z" fill="white"/>
</g>
<defs>
<clipPath id="clip0_1_9">
<rect width="160" height="132" fill="white"/>
</clipPath>
</defs>
</svg>
