<svg width="46" height="46" viewBox="0 0 46 46" xmlns="http://www.w3.org/2000/svg"><path fill-rule="evenodd" clip-rule="evenodd" d="M22.9995 46C10.2966 46 0 35.7013 0 22.9995C0 10.2966 10.2966 0 22.9995 0C35.7034 0 45.999 10.2966 45.999 22.9995C45.999 35.7013 35.7024 46 22.9995 46ZM37.0027 20.4557C36.9947 19.7991 36.9827 19.272 36.9718 18.8685C36.9638 18.4659 36.9509 18.0305 36.9329 17.5582C36.8612 16.1184 36.639 14.9846 36.2853 14.1566C35.9485 13.2618 35.4015 12.4308 34.6582 11.6816C33.9049 10.9333 33.0799 10.3912 32.1832 10.0515C31.3362 9.69384 30.2024 9.47854 28.7775 9.40484C28.3062 9.39094 27.8648 9.36894 27.4563 9.34504C27.0438 9.33114 26.5108 9.32214 25.8641 9.32214C25.2174 9.32214 24.2679 9.32214 23.0125 9.32214C21.7331 9.32214 20.7746 9.32214 20.1269 9.32214C19.4853 9.32214 18.9532 9.33114 18.5377 9.34504C18.1272 9.36794 17.6868 9.38994 17.2215 9.40484C15.7767 9.47854 14.6408 9.69484 13.8188 10.0515C12.9191 10.3912 12.0961 10.9333 11.3418 11.6816C10.5896 12.4308 10.0455 13.2608 9.7078 14.1566C9.352 14.9836 9.13982 16.1174 9.0621 17.5582C9.04317 18.0315 9.03121 18.4659 9.02025 18.8685C9.01129 19.273 9.00331 19.7991 8.99235 20.4557C8.98339 21.1163 8.97641 22.0678 8.97641 23.3283C8.97641 24.5987 8.98239 25.5661 8.99235 26.2198C9.00331 26.8754 9.01129 27.4065 9.02025 27.81C9.03121 28.2145 9.04317 28.6509 9.0621 29.1182C9.13982 30.564 9.352 31.6969 9.7078 32.5219C10.0455 33.4246 10.5896 34.2496 11.3418 34.9969C12.0961 35.7482 12.9191 36.2912 13.8188 36.63C14.6408 36.9837 15.7767 37.1979 17.2215 37.2756C17.6878 37.2956 18.1232 37.3105 18.5257 37.3324C18.9283 37.3504 19.4584 37.3633 20.116 37.3633C20.7696 37.3633 21.7251 37.3633 22.9816 37.3633C24.2609 37.3633 25.2184 37.3633 25.8641 37.3633C26.5098 37.3633 27.0438 37.3494 27.4563 37.3324C27.8648 37.3115 28.3072 37.2956 28.7775 37.2756C30.2173 37.1979 31.3562 36.9837 32.1832 36.63C33.0799 36.2912 33.9059 35.7482 34.6582 34.9969C35.4015 34.2496 35.9485 33.4246 36.2853 32.5219C36.639 31.6969 36.8612 30.564 36.9329 29.1182C36.9509 28.6509 36.9638 28.2155 36.9718 27.81C36.9837 27.4075 36.9947 26.8754 37.0027 26.2198C37.0106 25.5661 37.0146 24.5987 37.0146 23.3283C37.0146 22.0678 37.0106 21.1163 37.0027 20.4557ZM34.3991 29.0086C34.3055 30.3029 34.148 31.1628 33.9258 31.5913C33.6977 32.212 33.3519 32.755 32.8786 33.2243C32.4333 33.6936 31.9002 34.0414 31.2794 34.2676C30.851 34.4937 29.9732 34.6492 28.6619 34.7448C28.1926 34.7628 27.7632 34.7777 27.3716 34.7897C26.9781 34.7996 26.4589 34.8036 25.8203 34.8126C25.1836 34.8225 24.246 34.8325 23.0115 34.8325C21.751 34.8325 20.8075 34.8225 20.1688 34.8126C19.5301 34.8026 19.015 34.7986 18.6234 34.7897C18.2298 34.7777 17.7994 34.7628 17.3301 34.7448C16.0338 34.6492 15.1739 34.4937 14.7455 34.2676C14.1217 34.0224 13.5807 33.6737 13.1094 33.2243C12.6431 32.755 12.2974 32.212 12.0712 31.5913C11.845 31.1628 11.6836 30.3029 11.5889 29.0086C11.574 28.5394 11.5531 28.1059 11.5381 27.7143C11.5152 27.3198 11.5072 26.8056 11.5072 26.165C11.5072 25.5303 11.5072 24.5787 11.5072 23.3273C11.5072 22.0888 11.5072 21.1492 11.5072 20.5155C11.5072 19.8778 11.5152 19.3587 11.5381 18.9671C11.5541 18.5705 11.574 18.1441 11.5889 17.6768C11.6836 16.3586 11.845 15.4867 12.0712 15.0573C12.2974 14.4395 12.6421 13.9035 13.1094 13.4531C13.5797 12.9838 14.1207 12.6371 14.7455 12.4119C15.1739 12.1887 16.0338 12.0293 17.3301 11.9346C17.7406 11.8988 18.1212 11.8719 18.4699 11.8629C18.8157 11.8589 19.2312 11.8509 19.7214 11.8509C20.2046 11.8509 20.8812 11.8509 21.7431 11.8509C21.9912 11.8509 22.2492 11.8509 22.5322 11.8509C22.6827 11.8509 22.8391 11.8509 23.0105 11.8509C24.245 11.8509 25.1826 11.8509 25.8193 11.8509C26.4579 11.8509 26.9771 11.8589 27.3706 11.8768C27.7622 11.8978 28.1917 11.9137 28.6609 11.9346C29.9722 12.0293 30.85 12.1887 31.2784 12.4119C31.8992 12.6371 32.4323 12.9838 32.8776 13.4531C33.3509 13.9035 33.6967 14.4395 33.9248 15.0573C34.147 15.4867 34.3045 16.3586 34.3981 17.6768C34.421 18.1441 34.437 18.5705 34.4569 18.9671C34.4768 19.3587 34.4818 19.8778 34.4818 20.5155C34.4818 21.1492 34.4818 22.0898 34.4818 23.3273C34.4818 24.5787 34.4818 25.5303 34.4818 26.165C34.4818 26.8056 34.4758 27.3188 34.4569 27.7143C34.438 28.1059 34.422 28.5403 34.3991 29.0086ZM28.101 18.2348C26.6941 16.8279 24.9972 16.1264 23.0115 16.1264C21.0257 16.1264 19.3268 16.8279 17.9189 18.2348C16.5121 19.6417 15.8106 21.3385 15.8106 23.3283C15.8106 25.333 16.5121 27.0358 17.9189 28.4248C19.3268 29.8277 21.0267 30.5261 23.0115 30.5261C24.9963 30.5261 26.6941 29.8277 28.101 28.4248C29.5079 27.0348 30.2083 25.332 30.2083 23.3283C30.2093 21.3385 29.5079 19.6417 28.101 18.2348ZM31.674 14.6767C31.3552 14.3469 30.9596 14.1855 30.4903 14.1855C30.023 14.1855 29.6225 14.3469 29.2976 14.6767C28.9668 15.0055 28.8054 15.402 28.8054 15.8454C28.8054 16.3137 28.9668 16.7113 29.2976 17.0431C29.6225 17.3649 30.024 17.5273 30.4903 17.5273C30.9417 17.5273 31.3293 17.3649 31.6601 17.0431C31.9889 16.7113 32.1503 16.3137 32.1503 15.8454C32.1513 15.402 31.9938 15.0055 31.674 14.6767ZM23.0115 28.0222C21.7201 28.0222 20.6072 27.5649 19.6915 26.6462C18.7719 25.7216 18.3135 24.6186 18.3135 23.3283C18.3135 22.0479 18.7719 20.9529 19.6915 20.0332C20.6072 19.1166 21.7191 18.6562 23.0115 18.6562C24.2848 18.6562 25.3838 19.1156 26.3045 20.0332C27.2212 20.9529 27.6805 22.0479 27.6805 23.3283C27.6805 24.6186 27.2212 25.7216 26.3045 26.6462C25.3848 27.5649 24.2848 28.0222 23.0115 28.0222Z"/></svg>