<svg width="46" height="46" viewBox="0 0 46 46" xmlns="http://www.w3.org/2000/svg"><path fill-rule="evenodd" clip-rule="evenodd" d="M22.9995 46C10.2976 46 0 35.7014 0 22.9995C0 10.2966 10.2976 0 22.9995 0C35.7014 0 46.001 10.2966 46.001 22.9995C46.001 35.7014 35.7024 46 22.9995 46ZM30.1406 8.67351C28.8851 8.52306 27.554 8.45032 26.1511 8.45032C23.4289 8.45032 21.497 9.44175 20.3531 11.4305C19.6945 12.5344 19.3697 13.8109 19.3697 15.2547V19.2491H14.8999V24.4214H19.3697V37.8377H24.7661V24.4223H29.2697L29.9433 19.2502H24.7671V16.2969C24.7671 15.4729 24.8199 14.9557 24.9145 14.7524C24.9145 14.6916 24.9863 14.5232 25.1387 14.2422C25.4715 13.6225 26.3414 13.3156 27.7503 13.3156H30.1416L30.1406 8.67351Z"/></svg>