<svg width="46" height="46" viewBox="0 0 46 46" xmlns="http://www.w3.org/2000/svg"><path fill-rule="evenodd" clip-rule="evenodd" d="M22.9995 46C10.2966 46 0 35.7014 0 22.9995C0 10.2966 10.2966 0 22.9995 0C35.7023 0 45.999 10.2966 45.999 22.9995C45.999 35.7014 35.7023 46 22.9995 46ZM38.4504 14.4186C36.913 15.0583 35.788 15.3762 35.0716 15.3762V15.3184C35.3187 15.1878 35.7412 14.86 36.34 14.3379C36.9767 13.5478 37.4062 12.7796 37.6323 12.0303C36.8482 12.5016 36.0401 12.8712 35.2151 13.1532C34.429 13.3794 33.9676 13.491 33.8371 13.491C32.504 12.2535 31.0403 11.6337 29.453 11.6337C27.8548 11.6337 26.4519 12.2057 25.2343 13.3485C24.0118 14.5302 23.404 15.9551 23.404 17.625C23.404 18.0395 23.4588 18.4968 23.5714 19.002C23.1021 19.002 22.2243 18.8984 20.933 18.6971C18.7359 18.1331 16.8139 17.337 15.1649 16.3038C13.8726 15.4977 12.5275 14.2981 11.1435 12.7058C10.6154 13.7002 10.3534 14.6607 10.3534 15.6023C10.3534 17.0969 10.8227 18.44 11.7603 19.6217C12.2266 20.1658 12.6241 20.5235 12.945 20.6889V20.7496C12.1379 20.7496 11.2541 20.5005 10.2976 20.0173C10.2976 21.7022 10.9094 23.1669 12.1269 24.4034C12.8981 25.0789 13.5906 25.5183 14.2104 25.7206C14.6767 25.876 14.9577 25.9488 15.0553 25.9488C15.0553 25.9876 14.8261 26.0524 14.3778 26.1451H13.6743H13.4491C13.1452 26.1451 12.7836 26.1182 12.3521 26.0634C12.8573 27.4683 13.7012 28.5483 14.8829 29.2956C15.9132 29.9343 16.9544 30.2511 18.0026 30.2511C17.3878 30.7224 16.8129 31.0981 16.2878 31.3761C14.4356 32.3525 12.5763 32.8378 10.72 32.8378C10.0634 32.8378 9.5304 32.8148 9.11491 32.7561C11.9306 34.5565 15.0145 35.4572 18.3683 35.4572C22.5332 35.4572 26.2267 34.1072 29.453 31.404C31.7706 29.3275 33.4426 26.8674 34.4559 24.0397C35.1294 22.1067 35.4702 20.2893 35.4702 18.5845V17.5144C35.805 17.3241 36.36 16.8498 37.1222 16.0786C37.7101 15.4449 38.1574 14.8879 38.4763 14.4196H38.4504V14.4186Z"/></svg>