<svg width="142" height="142" viewBox="0 0 142 142" xmlns="http://www.w3.org/2000/svg"><path fill-rule="evenodd" clip-rule="evenodd" d="M0 71C0 31.7879 31.7879 0 71 0C110.211 0 142 31.7878 142 71C142 110.212 110.212 141.999 71 141.999C31.7879 141.999 0 110.213 0 71ZM71 1C32.3401 1 1 32.3401 1 71C1 109.661 32.3401 140.999 71 140.999C109.66 140.999 141 109.66 141 71C141 32.3401 109.659 1 71 1ZM56.777 37.9567L102.951 71.215L56.777 104.473V37.9567ZM57.777 39.9093V102.521L101.24 71.215L57.777 39.9093Z"/></svg>