<svg width="574" height="74" viewBox="0 0 574 74" fill="none" xmlns="http://www.w3.org/2000/svg"><path d="M7.664 64.497V9.801C7.664 9.561 7.825 9.4 8.068 9.4H23.143C25.389 9.4 26.753 9.4 27.715 9.48C46.801 11.245 49.769 33.781 35.816 40.758C34.533 41.4 34.29 42.442 35.014 43.565L49.45 64.657C49.848 65.218 49.609 65.539 48.968 65.539H39.585C38.942 65.539 38.303 65.218 37.902 64.657L24.666 45.008C23.866 43.885 22.5 43.164 21.14 43.164H19.536C18.172 43.164 17.289 44.045 17.289 45.408V64.497C17.289 65.139 16.89 65.539 16.248 65.539H8.708C8.068 65.539 7.664 65.139 7.664 64.497ZM17.289 31.775C17.289 33.139 18.172 34.1 19.536 34.1H25.39C37.578 34.1 37.5 18.462 25.39 18.462H19.536C18.172 18.462 17.289 19.423 17.289 20.787V31.775Z" fill="white"/><path d="M80.656 8.117C95.094 8.117 109.53 17.901 109.53 37.468C109.53 57.038 95.094 66.822 80.656 66.822C66.139 66.822 51.706 57.038 51.706 37.468C51.706 17.901 66.139 8.117 80.656 8.117ZM80.656 57.117C90.361 57.117 100.146 50.623 100.146 37.468C100.146 24.317 90.361 17.82 80.656 17.82C70.874 17.82 61.169 24.317 61.169 37.468C61.168 50.623 70.874 57.117 80.656 57.117ZM74.08 36.747L79.934 30.894C80.335 30.491 80.896 30.413 81.376 30.894L87.233 36.747C87.634 37.148 87.634 37.791 87.233 38.192L81.376 44.046C80.896 44.527 80.335 44.446 79.934 44.046L74.08 38.192C73.598 37.709 73.598 37.229 74.08 36.747Z" fill="white"/><path d="M114.594 9.399H122.693C123.336 9.399 123.898 9.8 124.138 10.364L137.451 42.362C137.693 43.004 138.094 43.324 138.414 43.324C138.734 43.324 138.977 43.004 139.297 42.362L150.843 16.216C151.006 15.815 151.567 15.495 152.047 15.495C152.61 15.495 153.09 15.815 153.251 16.216L164.801 42.362C165.122 43.004 165.442 43.324 165.761 43.324C166.08 43.324 166.404 43.004 166.644 42.362L180.038 10.364C180.278 9.801 180.838 9.399 181.481 9.399H189.501C190.142 9.399 190.384 9.8 190.142 10.364L167.206 65.618C167.044 66.02 166.563 66.341 166.081 66.341C165.523 66.341 165.04 66.021 164.88 65.618L152.93 38.112C152.69 37.549 152.367 37.229 152.048 37.229C151.806 37.229 151.407 37.469 151.167 38.112L139.219 65.618C139.056 66.02 138.574 66.341 138.095 66.341C137.533 66.341 137.049 66.021 136.892 65.618L113.954 10.364C113.713 9.801 113.952 9.399 114.594 9.399Z" fill="white"/><path d="M197.375 9.399H205.476C206.119 9.399 206.68 9.8 206.921 10.361L220.234 42.363C220.476 43.003 220.877 43.323 221.194 43.323C221.516 43.323 221.76 43.003 222.078 42.363L233.627 16.216C233.789 15.815 234.348 15.495 234.83 15.495C235.393 15.495 235.873 15.814 236.033 16.216L253.436 55.352C253.678 55.915 253.678 56.717 253.436 57.277L249.989 65.618C249.826 66.02 249.346 66.341 248.865 66.341C248.303 66.341 247.823 66.021 247.664 65.618L235.714 38.11C235.472 37.549 235.151 37.23 234.831 37.23C234.589 37.23 234.188 37.469 233.95 38.11L222 65.618C221.839 66.02 221.358 66.341 220.878 66.341C220.316 66.341 219.832 66.021 219.672 65.618L196.736 10.362C196.494 9.801 196.736 9.399 197.375 9.399ZM251.992 36.187L262.819 10.362C263.061 9.801 263.621 9.4 264.26 9.4H272.282C272.924 9.4 273.165 9.801 272.924 10.362L257.366 47.975C257.124 48.538 256.803 48.538 256.564 47.975L251.992 38.111C251.751 37.55 251.751 36.826 251.992 36.187Z" fill="white"/><path d="M269.974 64.576L295.318 9.32C295.478 8.919 296.039 8.597 296.515 8.597C297.001 8.597 297.482 8.919 297.643 9.32L322.987 64.576C323.226 65.139 322.987 65.539 322.345 65.539H314.484C313.842 65.539 313.201 65.139 312.959 64.576L310.715 59.684C310.152 58.482 308.869 57.679 307.507 57.679H291.305C290.665 57.679 290.426 57.277 290.665 56.717L293.953 49.657C294.195 49.096 294.756 48.697 295.397 48.697H303.417C304.777 48.697 305.263 47.894 304.7 46.611L297.482 30.893C297.162 30.251 296.84 29.93 296.515 29.93C296.199 29.93 295.878 30.252 295.557 30.893L280 64.576C279.758 65.139 279.116 65.539 278.554 65.539H270.616C269.974 65.539 269.734 65.139 269.974 64.576Z" fill="white"/><path d="M332.384 64.497V9.801C332.384 9.561 332.544 9.4 332.784 9.4H347.862C350.106 9.4 351.47 9.4 352.431 9.48C371.518 11.245 374.485 33.781 360.532 40.758C359.249 41.4 359.007 42.442 359.73 43.565L374.165 64.658C374.566 65.219 374.325 65.54 373.686 65.54H364.302C363.659 65.54 363.018 65.219 362.616 64.658L349.384 45.009C348.581 43.886 347.219 43.165 345.854 43.165H344.254C342.889 43.165 342.006 44.046 342.006 45.409V64.498C342.006 65.14 341.608 65.54 340.964 65.54H333.424C332.784 65.539 332.384 65.139 332.384 64.497ZM342.006 31.775C342.006 33.139 342.889 34.1 344.254 34.1H350.107C362.297 34.1 362.216 18.462 350.107 18.462H344.254C342.889 18.462 342.006 19.423 342.006 20.787V31.775Z" fill="white"/><path d="M383.722 64.497V9.801C383.722 9.561 383.883 9.4 384.122 9.4H399.2C401.444 9.4 402.808 9.4 403.769 9.48C422.856 11.245 425.826 33.781 411.87 40.758C410.587 41.4 410.348 42.442 411.07 43.565L425.505 64.658C425.905 65.219 425.665 65.54 425.024 65.54H415.64C415 65.54 414.356 65.219 413.956 64.658L400.724 45.009C399.921 43.886 398.557 43.165 397.195 43.165H395.591C394.228 43.165 393.345 44.046 393.345 45.409V64.498C393.345 65.14 392.947 65.54 392.305 65.54H384.767C384.122 65.539 383.722 65.139 383.722 64.497ZM393.344 31.775C393.344 33.139 394.227 34.1 395.59 34.1H401.444C413.634 34.1 413.555 18.462 401.444 18.462H395.59C394.227 18.462 393.344 19.423 393.344 20.787V31.775Z" fill="white"/><path d="M435.063 10.443C435.063 9.801 435.462 9.4 436.102 9.4H443.642C444.284 9.4 444.684 9.801 444.684 10.443V17.339C444.684 17.982 444.284 18.383 443.642 18.383H436.102C435.462 18.383 435.063 17.982 435.063 17.339V10.443ZM436.102 26.162H443.642C444.284 26.162 444.684 26.561 444.684 27.204V64.497C444.684 65.139 444.284 65.539 443.642 65.539H436.102C435.462 65.539 435.063 65.139 435.063 64.497V27.204C435.063 26.561 435.462 26.162 436.102 26.162Z" fill="white"/><path d="M484.546 8.117C498.981 8.117 513.417 17.901 513.417 37.468C513.417 57.038 498.98 66.822 484.546 66.822C470.029 66.822 455.595 57.038 455.595 37.468C455.595 17.901 470.029 8.117 484.546 8.117ZM484.546 57.117C494.249 57.117 504.033 50.623 504.033 37.468C504.033 24.317 494.249 17.82 484.546 17.82C474.762 17.82 465.057 24.317 465.057 37.468C465.057 50.623 474.762 57.117 484.546 57.117ZM477.97 36.747L483.823 30.894C484.227 30.491 484.788 30.413 485.267 30.894L491.123 36.747C491.523 37.148 491.523 37.791 491.123 38.192L485.267 44.046C484.788 44.527 484.227 44.446 483.823 44.046L477.97 38.192C477.489 37.709 477.489 37.229 477.97 36.747Z" fill="white"/><path d="M524.339 64.497V9.801C524.339 9.561 524.499 9.4 524.739 9.4H539.817C542.061 9.4 543.425 9.4 544.386 9.48C563.473 11.245 566.44 33.781 552.487 40.758C551.204 41.4 550.962 42.442 551.687 43.565L566.122 64.658C566.521 65.219 566.28 65.54 565.641 65.54H556.257C555.614 65.54 554.973 65.219 554.571 64.658L541.341 45.009C540.538 43.886 539.174 43.165 537.809 43.165H536.205C534.844 43.165 533.961 44.046 533.961 45.409V64.498C533.961 65.14 533.563 65.54 532.919 65.54H525.379C524.739 65.539 524.339 65.139 524.339 64.497ZM533.961 31.775C533.961 33.139 534.844 34.1 536.205 34.1H542.061C554.251 34.1 554.17 18.462 542.061 18.462H536.205C534.844 18.462 533.961 19.423 533.961 20.787V31.775Z" fill="white"/></svg>