<svg width="0" height="0" class="hidden">
  <symbol xmlns="http://www.w3.org/2000/svg" viewBox="0 0 24 24" id="close">
    <path d="M0 0h24v24H0V0z" fill="none"></path>
    <path d="M19 6.41L17.59 5 12 10.59 6.41 5 5 6.41 10.59 12 5 17.59 6.41 19 12 13.41 17.59 19 19 17.59 13.41 12 19 6.41z"></path>
  </symbol>
  <symbol xmlns="http://www.w3.org/2000/svg" viewBox="0 0 46 46" id="facebook">
    <path fill-rule="evenodd" clip-rule="evenodd" d="M22.9995 46C10.2976 46 0 35.7014 0 22.9995C0 10.2966 10.2976 0 22.9995 0C35.7014 0 46.001 10.2966 46.001 22.9995C46.001 35.7014 35.7024 46 22.9995 46ZM30.1406 8.67351C28.8851 8.52306 27.554 8.45032 26.1511 8.45032C23.4289 8.45032 21.497 9.44175 20.3531 11.4305C19.6945 12.5344 19.3697 13.8109 19.3697 15.2547V19.2491H14.8999V24.4214H19.3697V37.8377H24.7661V24.4223H29.2697L29.9433 19.2502H24.7671V16.2969C24.7671 15.4729 24.8199 14.9557 24.9145 14.7524C24.9145 14.6916 24.9863 14.5232 25.1387 14.2422C25.4715 13.6225 26.3414 13.3156 27.7503 13.3156H30.1416L30.1406 8.67351Z"></path>
  </symbol>
  <symbol xmlns="http://www.w3.org/2000/svg" viewBox="0 0 46 46" id="instagram">
    <path fill-rule="evenodd" clip-rule="evenodd" d="M22.9995 46C10.2966 46 0 35.7013 0 22.9995C0 10.2966 10.2966 0 22.9995 0C35.7034 0 45.999 10.2966 45.999 22.9995C45.999 35.7013 35.7024 46 22.9995 46ZM37.0027 20.4557C36.9947 19.7991 36.9827 19.272 36.9718 18.8685C36.9638 18.4659 36.9509 18.0305 36.9329 17.5582C36.8612 16.1184 36.639 14.9846 36.2853 14.1566C35.9485 13.2618 35.4015 12.4308 34.6582 11.6816C33.9049 10.9333 33.0799 10.3912 32.1832 10.0515C31.3362 9.69384 30.2024 9.47854 28.7775 9.40484C28.3062 9.39094 27.8648 9.36894 27.4563 9.34504C27.0438 9.33114 26.5108 9.32214 25.8641 9.32214C25.2174 9.32214 24.2679 9.32214 23.0125 9.32214C21.7331 9.32214 20.7746 9.32214 20.1269 9.32214C19.4853 9.32214 18.9532 9.33114 18.5377 9.34504C18.1272 9.36794 17.6868 9.38994 17.2215 9.40484C15.7767 9.47854 14.6408 9.69484 13.8188 10.0515C12.9191 10.3912 12.0961 10.9333 11.3418 11.6816C10.5896 12.4308 10.0455 13.2608 9.7078 14.1566C9.352 14.9836 9.13982 16.1174 9.0621 17.5582C9.04317 18.0315 9.03121 18.4659 9.02025 18.8685C9.01129 19.273 9.00331 19.7991 8.99235 20.4557C8.98339 21.1163 8.97641 22.0678 8.97641 23.3283C8.97641 24.5987 8.98239 25.5661 8.99235 26.2198C9.00331 26.8754 9.01129 27.4065 9.02025 27.81C9.03121 28.2145 9.04317 28.6509 9.0621 29.1182C9.13982 30.564 9.352 31.6969 9.7078 32.5219C10.0455 33.4246 10.5896 34.2496 11.3418 34.9969C12.0961 35.7482 12.9191 36.2912 13.8188 36.63C14.6408 36.9837 15.7767 37.1979 17.2215 37.2756C17.6878 37.2956 18.1232 37.3105 18.5257 37.3324C18.9283 37.3504 19.4584 37.3633 20.116 37.3633C20.7696 37.3633 21.7251 37.3633 22.9816 37.3633C24.2609 37.3633 25.2184 37.3633 25.8641 37.3633C26.5098 37.3633 27.0438 37.3494 27.4563 37.3324C27.8648 37.3115 28.3072 37.2956 28.7775 37.2756C30.2173 37.1979 31.3562 36.9837 32.1832 36.63C33.0799 36.2912 33.9059 35.7482 34.6582 34.9969C35.4015 34.2496 35.9485 33.4246 36.2853 32.5219C36.639 31.6969 36.8612 30.564 36.9329 29.1182C36.9509 28.6509 36.9638 28.2155 36.9718 27.81C36.9837 27.4075 36.9947 26.8754 37.0027 26.2198C37.0106 25.5661 37.0146 24.5987 37.0146 23.3283C37.0146 22.0678 37.0106 21.1163 37.0027 20.4557ZM34.3991 29.0086C34.3055 30.3029 34.148 31.1628 33.9258 31.5913C33.6977 32.212 33.3519 32.755 32.8786 33.2243C32.4333 33.6936 31.9002 34.0414 31.2794 34.2676C30.851 34.4937 29.9732 34.6492 28.6619 34.7448C28.1926 34.7628 27.7632 34.7777 27.3716 34.7897C26.9781 34.7996 26.4589 34.8036 25.8203 34.8126C25.1836 34.8225 24.246 34.8325 23.0115 34.8325C21.751 34.8325 20.8075 34.8225 20.1688 34.8126C19.5301 34.8026 19.015 34.7986 18.6234 34.7897C18.2298 34.7777 17.7994 34.7628 17.3301 34.7448C16.0338 34.6492 15.1739 34.4937 14.7455 34.2676C14.1217 34.0224 13.5807 33.6737 13.1094 33.2243C12.6431 32.755 12.2974 32.212 12.0712 31.5913C11.845 31.1628 11.6836 30.3029 11.5889 29.0086C11.574 28.5394 11.5531 28.1059 11.5381 27.7143C11.5152 27.3198 11.5072 26.8056 11.5072 26.165C11.5072 25.5303 11.5072 24.5787 11.5072 23.3273C11.5072 22.0888 11.5072 21.1492 11.5072 20.5155C11.5072 19.8778 11.5152 19.3587 11.5381 18.9671C11.5541 18.5705 11.574 18.1441 11.5889 17.6768C11.6836 16.3586 11.845 15.4867 12.0712 15.0573C12.2974 14.4395 12.6421 13.9035 13.1094 13.4531C13.5797 12.9838 14.1207 12.6371 14.7455 12.4119C15.1739 12.1887 16.0338 12.0293 17.3301 11.9346C17.7406 11.8988 18.1212 11.8719 18.4699 11.8629C18.8157 11.8589 19.2312 11.8509 19.7214 11.8509C20.2046 11.8509 20.8812 11.8509 21.7431 11.8509C21.9912 11.8509 22.2492 11.8509 22.5322 11.8509C22.6827 11.8509 22.8391 11.8509 23.0105 11.8509C24.245 11.8509 25.1826 11.8509 25.8193 11.8509C26.4579 11.8509 26.9771 11.8589 27.3706 11.8768C27.7622 11.8978 28.1917 11.9137 28.6609 11.9346C29.9722 12.0293 30.85 12.1887 31.2784 12.4119C31.8992 12.6371 32.4323 12.9838 32.8776 13.4531C33.3509 13.9035 33.6967 14.4395 33.9248 15.0573C34.147 15.4867 34.3045 16.3586 34.3981 17.6768C34.421 18.1441 34.437 18.5705 34.4569 18.9671C34.4768 19.3587 34.4818 19.8778 34.4818 20.5155C34.4818 21.1492 34.4818 22.0898 34.4818 23.3273C34.4818 24.5787 34.4818 25.5303 34.4818 26.165C34.4818 26.8056 34.4758 27.3188 34.4569 27.7143C34.438 28.1059 34.422 28.5403 34.3991 29.0086ZM28.101 18.2348C26.6941 16.8279 24.9972 16.1264 23.0115 16.1264C21.0257 16.1264 19.3268 16.8279 17.9189 18.2348C16.5121 19.6417 15.8106 21.3385 15.8106 23.3283C15.8106 25.333 16.5121 27.0358 17.9189 28.4248C19.3268 29.8277 21.0267 30.5261 23.0115 30.5261C24.9963 30.5261 26.6941 29.8277 28.101 28.4248C29.5079 27.0348 30.2083 25.332 30.2083 23.3283C30.2093 21.3385 29.5079 19.6417 28.101 18.2348ZM31.674 14.6767C31.3552 14.3469 30.9596 14.1855 30.4903 14.1855C30.023 14.1855 29.6225 14.3469 29.2976 14.6767C28.9668 15.0055 28.8054 15.402 28.8054 15.8454C28.8054 16.3137 28.9668 16.7113 29.2976 17.0431C29.6225 17.3649 30.024 17.5273 30.4903 17.5273C30.9417 17.5273 31.3293 17.3649 31.6601 17.0431C31.9889 16.7113 32.1503 16.3137 32.1503 15.8454C32.1513 15.402 31.9938 15.0055 31.674 14.6767ZM23.0115 28.0222C21.7201 28.0222 20.6072 27.5649 19.6915 26.6462C18.7719 25.7216 18.3135 24.6186 18.3135 23.3283C18.3135 22.0479 18.7719 20.9529 19.6915 20.0332C20.6072 19.1166 21.7191 18.6562 23.0115 18.6562C24.2848 18.6562 25.3838 19.1156 26.3045 20.0332C27.2212 20.9529 27.6805 22.0479 27.6805 23.3283C27.6805 24.6186 27.2212 25.7216 26.3045 26.6462C25.3848 27.5649 24.2848 28.0222 23.0115 28.0222Z"></path>
  </symbol>
  <symbol fill="none" xmlns="http://www.w3.org/2000/svg" viewBox="0 0 28 25" id="star">
    <path fill-rule="evenodd" clip-rule="evenodd" d="M11.862 0.587257L7.76202 9.14831L0 9.14687L5.77933 15.1204L3.7875 24.4127L11.7885 18.8238L19.6913 24.4127L18.1894 15.1113L23.5865 9.19543L15.9952 9.14783L11.862 0.587257Z" fill="#0983BB"></path>
  </symbol>
  <symbol xmlns="http://www.w3.org/2000/svg" viewBox="0 0 46 46" id="twitter">
    <path fill-rule="evenodd" clip-rule="evenodd" d="M22.9995 46C10.2966 46 0 35.7014 0 22.9995C0 10.2966 10.2966 0 22.9995 0C35.7023 0 45.999 10.2966 45.999 22.9995C45.999 35.7014 35.7023 46 22.9995 46ZM38.4504 14.4186C36.913 15.0583 35.788 15.3762 35.0716 15.3762V15.3184C35.3187 15.1878 35.7412 14.86 36.34 14.3379C36.9767 13.5478 37.4062 12.7796 37.6323 12.0303C36.8482 12.5016 36.0401 12.8712 35.2151 13.1532C34.429 13.3794 33.9676 13.491 33.8371 13.491C32.504 12.2535 31.0403 11.6337 29.453 11.6337C27.8548 11.6337 26.4519 12.2057 25.2343 13.3485C24.0118 14.5302 23.404 15.9551 23.404 17.625C23.404 18.0395 23.4588 18.4968 23.5714 19.002C23.1021 19.002 22.2243 18.8984 20.933 18.6971C18.7359 18.1331 16.8139 17.337 15.1649 16.3038C13.8726 15.4977 12.5275 14.2981 11.1435 12.7058C10.6154 13.7002 10.3534 14.6607 10.3534 15.6023C10.3534 17.0969 10.8227 18.44 11.7603 19.6217C12.2266 20.1658 12.6241 20.5235 12.945 20.6889V20.7496C12.1379 20.7496 11.2541 20.5005 10.2976 20.0173C10.2976 21.7022 10.9094 23.1669 12.1269 24.4034C12.8981 25.0789 13.5906 25.5183 14.2104 25.7206C14.6767 25.876 14.9577 25.9488 15.0553 25.9488C15.0553 25.9876 14.8261 26.0524 14.3778 26.1451H13.6743H13.4491C13.1452 26.1451 12.7836 26.1182 12.3521 26.0634C12.8573 27.4683 13.7012 28.5483 14.8829 29.2956C15.9132 29.9343 16.9544 30.2511 18.0026 30.2511C17.3878 30.7224 16.8129 31.0981 16.2878 31.3761C14.4356 32.3525 12.5763 32.8378 10.72 32.8378C10.0634 32.8378 9.5304 32.8148 9.11491 32.7561C11.9306 34.5565 15.0145 35.4572 18.3683 35.4572C22.5332 35.4572 26.2267 34.1072 29.453 31.404C31.7706 29.3275 33.4426 26.8674 34.4559 24.0397C35.1294 22.1067 35.4702 20.2893 35.4702 18.5845V17.5144C35.805 17.3241 36.36 16.8498 37.1222 16.0786C37.7101 15.4449 38.1574 14.8879 38.4763 14.4196H38.4504V14.4186Z"></path>
  </symbol>
  <symbol xmlns="http://www.w3.org/2000/svg" viewBox="0 0 142 142" id="video-play-btn-fill">
    <path d="M71.0005 0C31.7881 0 0 31.7881 0 71.0005C0 110.214 31.7881 142 71.0005 142C110.213 142 142.001 110.213 142.001 71.0005C142.001 31.7881 110.212 0 71.0005 0ZM57.1801 103.728V38.7058L102.317 71.217L57.1801 103.728Z"></path>
  </symbol>
  <symbol xmlns="http://www.w3.org/2000/svg" viewBox="0 0 142 142" id="video-play-btn-outline">
    <path fill-rule="evenodd" clip-rule="evenodd" d="M0 71C0 31.7879 31.7879 0 71 0C110.211 0 142 31.7878 142 71C142 110.212 110.212 141.999 71 141.999C31.7879 141.999 0 110.213 0 71ZM71 1C32.3401 1 1 32.3401 1 71C1 109.661 32.3401 140.999 71 140.999C109.66 140.999 141 109.66 141 71C141 32.3401 109.659 1 71 1ZM56.777 37.9567L102.951 71.215L56.777 104.473V37.9567ZM57.777 39.9093V102.521L101.24 71.215L57.777 39.9093Z"></path>
  </symbol>
  <symbol xmlns="http://www.w3.org/2000/svg" viewBox="0 0 24 24" id="arrow-btn-subscribe">
    <path fill-rule="evenodd" clip-rule="evenodd" d="M1.01056 13.5262H17.1472L11.0444 19.63H15.3579L22.9894 11.9995L15.3579 4.37H11.0444L17.1472 10.4738H1.01056V13.5262Z"></path>
  </symbol>
  <symbol xmlns="http://www.w3.org/2000/svg" viewBox="0 0 90 90" id="arrow-slider-next">
    <path fill-rule="evenodd" clip-rule="evenodd" d="M68.6395 48.2563L27.9391 88.6505C26.1261 90.4498 23.1856 90.4498 21.3726 88.6505C19.5596 86.8502 19.5596 83.9319 21.3726 82.1326L58.7812 45.0064L21.3605 7.86713C19.5465 6.06782 19.5465 3.14955 21.3605 1.35024C23.1735 -0.450079 26.114 -0.450079 27.927 1.35024L68.5509 41.6675C68.5791 41.6945 68.6123 41.7124 68.6395 41.7394C70.4535 43.5387 70.4535 46.457 68.6395 48.2563Z"></path>
  </symbol>
  <symbol xmlns="http://www.w3.org/2000/svg" viewBox="0 0 90 90" id="arrow-slider-prev">
    <path fill-rule="evenodd" clip-rule="evenodd" d="M21.3605 41.7437L62.0609 1.34949C63.8739 -0.449828 66.8144 -0.449828 68.6274 1.34949C70.4404 3.1498 70.4404 6.06807 68.6274 7.86739L31.2188 44.9936L68.6395 82.1329C70.4535 83.9322 70.4535 86.8504 68.6395 88.6498C66.8265 90.4501 63.886 90.4501 62.073 88.6498L21.4491 48.3325C21.4209 48.3055 21.3877 48.2876 21.3605 48.2606C19.5465 46.4613 19.5465 43.543 21.3605 41.7437Z"></path>
  </symbol>
</svg>